<?xml version="1.0" encoding="iso-8859-1"?>
<svg height="800px" width="800px" version="1.1" id="Layer_1" xmlns="http://www.w3.org/2000/svg" xmlns:xlink="http://www.w3.org/1999/xlink"
	 viewBox="0 0 512.001 512.001" xml:space="preserve">
<g>
	<g>
		<path d="M489.418,331.554h-8.116v-22.609c0-26.608-21.647-48.256-48.255-48.256h-32.438l33.5-60.093
			c4.432-7.949,1.58-17.987-6.37-22.418c-7.95-4.431-17.987-1.58-22.418,6.37l-29.647,53.18
			c-25.199-38.04-68.092-61.635-114.723-61.635H130.448c-27.579,0-51.551,17.713-59.653,44.075l-13.676,44.507
			c-10.483,5.235-18.217,15.171-20.428,27.031c6.806,0,12.288,0,19.051,0c6.371,0,11.536,5.164,11.536,11.536
			c0,6.482-5.303,11.536-11.536,11.536H36.037v16.817C16.02,332.458,0,349.006,0,369.231c0,20.776,16.902,37.678,37.677,37.678
			h11.823c-3.466-46.472,30.581-85.878,74.925-91.2h20.467c44.677,5.362,78.363,45.129,74.925,91.2h86.22
			c-3.837-51.431,38.216-91.2,80.917-91.2c1.536,0,3.04-0.221,4.481-0.629c49.011,0.136,88.645,41.858,84.921,91.829h13.062
			c9.101,0,16.479-7.378,16.479-16.479v-42.397C505.898,338.932,498.519,331.554,489.418,331.554z M177.96,260.691H92.823
			l9.476-30.839c3.823-12.44,15.134-20.799,28.149-20.799h47.512V260.691z M292.212,314.779h-39.263
			c-6.371,0-11.536-5.164-11.536-11.536s5.164-11.536,11.536-11.536h39.263c6.37,0,11.536,5.164,11.536,11.536
			S298.583,314.779,292.212,314.779z M210.918,260.689v-51.637h50.035c37.373,0.001,71.595,19.924,90.231,51.637H210.918z"/>
	</g>
</g>
<g>
	<g>
		<path d="M134.66,348.032c-28.976,0-52.466,23.49-52.466,52.466c0,28.976,23.49,52.466,52.466,52.466s52.466-23.49,52.466-52.466
			C187.126,371.522,163.636,348.032,134.66,348.032z M134.66,420.437c-11.012,0-19.938-8.927-19.938-19.939
			c0-11.012,8.927-19.939,19.938-19.939c11.012,0,19.939,8.927,19.939,19.939C154.598,411.51,145.671,420.437,134.66,420.437z"/>
	</g>
</g>
<g>
	<g>
		<path d="M391.197,348.032c-28.976,0-52.466,23.49-52.466,52.466c0,28.976,23.49,52.466,52.466,52.466
			c28.976,0,52.466-23.49,52.466-52.466C443.663,371.522,420.173,348.032,391.197,348.032z M391.197,420.437
			c-11.011,0-19.939-8.927-19.939-19.939c0-11.012,8.927-19.939,19.939-19.939c11.012,0,19.938,8.927,19.938,19.939
			C411.134,411.51,402.208,420.437,391.197,420.437z"/>
	</g>
</g>
<g>
	<g>
		<circle cx="500.28" cy="253.364" r="11.721"/>
	</g>
</g>
<g>
	<g>
		<path d="M509.2,145.278c0-13.652-11.067-24.719-24.719-24.719s-24.718,11.066-24.718,24.719c0,4.847,1.401,9.363,3.811,13.179
			c-8.728,2.055-15.231,9.874-15.231,19.229c0,10.921,8.854,19.775,19.775,19.775c10.921,0,19.775-8.854,19.775-19.775
			c0-2.757-0.568-5.381-1.587-7.764C499.104,168.988,509.2,158.316,509.2,145.278z"/>
	</g>
</g>
<g>
	<g>
		<circle cx="439.223" cy="140.338" r="11.208"/>
	</g>
</g>
<g>
	<g>
		<circle cx="463.724" cy="74.418" r="15.381"/>
	</g>
</g>
</svg>
