<svg xmlns="http://www.w3.org/2000/svg" xmlns:xlink="http://www.w3.org/1999/xlink" version="1.1" width="1000" height="1000" viewBox="0 0 1000 1000" xml:space="preserve">
<rect x="0" y="0" width="100%" height="100%" fill="transparent"/>
<g transform="matrix(-7.3982 0 0 7.3982 499.9999 500)" id="168053">
<path style="stroke: none; stroke-width: 1; stroke-dasharray: none; stroke-linecap: butt; stroke-dashoffset: 0; stroke-linejoin: miter; stroke-miterlimit: 4; is-custom-font: none; font-file-url: none; fill-rule: evenodd; opacity: 1;" vector-effect="non-scaling-stroke" transform=" translate(-61.44, -17.5168)" d="M 99.42 13.57 c 5.93 0 10.73 4.8 10.73 10.73 c 0 5.93 -4.8 10.73 -10.73 10.73 s -10.73 -4.8 -10.73 -10.73 C 88.69 18.37 93.49 13.57 99.42 13.57 L 99.42 13.57 z M 79.05 5 c -0.59 1.27 -1.06 2.69 -1.42 4.23 c -0.82 2.57 0.39 3.11 3.19 2.06 c 2.06 -1.23 4.12 -2.47 6.18 -3.7 c 1.05 -0.74 1.55 -1.47 1.38 -2.19 c -0.34 -1.42 -3.08 -2.16 -5.33 -2.6 C 80.19 2.23 80.39 2.11 79.05 5 L 79.05 5 z M 23.86 19.31 c 2.75 0 4.99 2.23 4.99 4.99 c 0 2.75 -2.23 4.99 -4.99 4.99 c -2.75 0 -4.99 -2.23 -4.99 -4.99 C 18.87 21.54 21.1 19.31 23.86 19.31 L 23.86 19.31 z M 99.42 19.31 c 2.75 0 4.99 2.23 4.99 4.99 c 0 2.75 -2.23 4.99 -4.99 4.99 c -2.75 0 -4.99 -2.23 -4.99 -4.99 C 94.43 21.54 96.66 19.31 99.42 19.31 L 99.42 19.31 z M 46.14 12.5 c 2.77 -2.97 5.97 -4.9 9.67 -6.76 c 8.1 -4.08 13.06 -3.58 21.66 -3.58 l -2.89 7.5 c -1.21 1.6 -2.58 2.73 -4.66 2.84 H 46.14 L 46.14 12.5 z M 23.86 13.57 c 5.93 0 10.73 4.8 10.73 10.73 c 0 5.93 -4.8 10.73 -10.73 10.73 s -10.73 -4.8 -10.73 -10.73 C 13.13 18.37 17.93 13.57 23.86 13.57 L 23.86 13.57 z M 40.82 10.3 c 3.52 -2.19 7.35 -4.15 11.59 -5.82 c 12.91 -5.09 22.78 -6 36.32 -1.9 c 4.08 1.55 8.16 3.1 12.24 4.06 c 4.03 0.96 21.48 1.88 21.91 4.81 l -4.31 5.15 c 1.57 1.36 2.85 3.03 3.32 5.64 c -0.13 1.61 -0.57 2.96 -1.33 4.04 c -1.29 1.85 -5.07 3.76 -7.11 2.67 c -0.65 -0.35 -1.02 -1.05 -1.01 -2.24 c 0.06 -23.9 -28.79 -21.18 -26.62 2.82 H 35.48 C 44.8 5.49 5.04 5.4 12.1 28.7 C 9.62 31.38 3.77 27.34 0 18.75 c 1.03 -1.02 2.16 -1.99 3.42 -2.89 c -0.06 -0.05 0.06 0.19 -0.15 -0.17 c -0.21 -0.36 0.51 -1.87 1.99 -2.74 C 13.02 8.4 31.73 8.52 40.82 10.3 L 40.82 10.3 z" stroke-linecap="round"/>
</g>
</svg>
