<?xml version="1.0" encoding="UTF-8"?>
<svg width="700pt" height="700pt" version="1.1" viewBox="0 0 700 700" xmlns="http://www.w3.org/2000/svg" xmlns:xlink="http://www.w3.org/1999/xlink">
 <defs>
  <symbol id="w" overflow="visible">
   <path d="m3.0938-0.1875c-0.15625 0.085938-0.32422 0.14844-0.5 0.1875-0.16797 0.039062-0.34375 0.0625-0.53125 0.0625-0.5625 0-1.0117-0.15625-1.3438-0.46875-0.32422-0.3125-0.48438-0.73828-0.48438-1.2812 0-0.53125 0.16016-0.95312 0.48438-1.2656 0.33203-0.32031 0.78125-0.48438 1.3438-0.48438 0.1875 0 0.36328 0.023438 0.53125 0.0625 0.17578 0.042969 0.34375 0.10547 0.5 0.1875v0.70312c-0.15625-0.11328-0.3125-0.19141-0.46875-0.23438-0.15625-0.050781-0.32422-0.078125-0.5-0.078125-0.3125 0-0.55859 0.10156-0.73438 0.29688-0.17969 0.19922-0.26562 0.46875-0.26562 0.8125 0 0.35547 0.085938 0.63281 0.26562 0.82812 0.17578 0.19922 0.42188 0.29688 0.73438 0.29688 0.17578 0 0.34375-0.023438 0.5-0.078125 0.15625-0.050781 0.3125-0.13281 0.46875-0.25z"/>
  </symbol>
  <symbol id="b" overflow="visible">
   <path d="m2.2656-1.8438c-0.074219-0.03125-0.14844-0.050781-0.21875-0.0625-0.0625-0.019531-0.13281-0.03125-0.20312-0.03125-0.21094 0-0.37109 0.070312-0.48438 0.20312-0.10547 0.13672-0.15625 0.32422-0.15625 0.5625v1.1719h-0.8125v-2.5312h0.8125v0.42188c0.10156-0.16406 0.21875-0.28516 0.34375-0.35938 0.13281-0.082031 0.30078-0.125 0.5-0.125 0.019531 0 0.046875 0.007812 0.078125 0.015625h0.14062z"/>
  </symbol>
  <symbol id="a" overflow="visible">
   <path d="m2.9062-1.2656v0.21875h-1.8906c0.019531 0.19922 0.085937 0.34375 0.20312 0.4375 0.125 0.09375 0.28906 0.14062 0.5 0.14062 0.16406 0 0.33594-0.023438 0.51562-0.078125 0.1875-0.050781 0.375-0.12891 0.5625-0.23438v0.625c-0.19922 0.074219-0.39062 0.125-0.57812 0.15625-0.1875 0.039062-0.38281 0.0625-0.57812 0.0625-0.46094 0-0.8125-0.11328-1.0625-0.34375-0.25-0.22656-0.375-0.55469-0.375-0.98438 0-0.40625 0.125-0.72656 0.375-0.96875 0.25-0.23828 0.58594-0.35938 1.0156-0.35938 0.40625 0 0.72266 0.12109 0.95312 0.35938 0.23828 0.24219 0.35938 0.5625 0.35938 0.96875zm-0.82812-0.28125c0-0.14453-0.046875-0.26562-0.14062-0.35938-0.085938-0.09375-0.19922-0.14062-0.34375-0.14062-0.15625 0-0.28906 0.046875-0.39062 0.14062-0.09375 0.085938-0.15234 0.20312-0.17188 0.35938z"/>
  </symbol>
  <symbol id="e" overflow="visible">
   <path d="m1.5156-1.1406c-0.16797 0-0.29297 0.03125-0.375 0.09375-0.085937 0.054687-0.125 0.13672-0.125 0.25 0 0.10547 0.03125 0.1875 0.09375 0.25 0.070313 0.054687 0.17188 0.078125 0.29688 0.078125 0.14453 0 0.26953-0.050781 0.375-0.15625 0.10156-0.11328 0.15625-0.25391 0.15625-0.42188v-0.09375zm1.2344-0.29688v1.4375h-0.8125v-0.375c-0.10547 0.15625-0.22656 0.27344-0.35938 0.34375-0.13672 0.0625-0.30469 0.09375-0.5 0.09375-0.26172 0-0.47656-0.070312-0.64062-0.21875-0.15625-0.15625-0.23438-0.35938-0.23438-0.60938 0-0.28906 0.097656-0.50391 0.29688-0.64062 0.20703-0.14453 0.53125-0.21875 0.96875-0.21875h0.46875v-0.0625c0-0.125-0.054688-0.21094-0.15625-0.26562-0.09375-0.0625-0.25-0.09375-0.46875-0.09375-0.16797 0-0.32812 0.015625-0.48438 0.046875-0.14844 0.03125-0.28125 0.085938-0.40625 0.15625v-0.625c0.17578-0.039062 0.34766-0.070312 0.51562-0.09375 0.17578-0.019531 0.35156-0.03125 0.53125-0.03125 0.45703 0 0.78516 0.09375 0.98438 0.28125 0.19531 0.17969 0.29688 0.46875 0.29688 0.875z"/>
  </symbol>
  <symbol id="d" overflow="visible">
   <path d="m1.2656-3.25v0.71875h0.84375v0.57812h-0.84375v1.0781c0 0.11719 0.019531 0.19531 0.0625 0.23438 0.050781 0.042969 0.14844 0.0625 0.29688 0.0625h0.40625v0.57812h-0.6875c-0.32422 0-0.55469-0.066406-0.6875-0.20312-0.125-0.13281-0.1875-0.35938-0.1875-0.67188v-1.0781h-0.40625v-0.57812h0.40625v-0.71875z"/>
  </symbol>
  <symbol id="l" overflow="visible">
   <path d="m2.1094-2.1562v-1.3594h0.8125v3.5156h-0.8125v-0.35938c-0.11719 0.14844-0.24219 0.25781-0.375 0.32812-0.125 0.0625-0.27734 0.09375-0.45312 0.09375-0.3125 0-0.57422-0.11719-0.78125-0.35938-0.19922-0.25-0.29688-0.57031-0.29688-0.96875 0-0.38281 0.097656-0.70312 0.29688-0.95312 0.20703-0.25 0.46875-0.375 0.78125-0.375 0.16406 0 0.31641 0.039062 0.45312 0.10938 0.13281 0.074219 0.25781 0.18359 0.375 0.32812zm-0.53125 1.6406c0.17578 0 0.30469-0.0625 0.39062-0.1875 0.09375-0.13281 0.14062-0.32031 0.14062-0.5625 0-0.23828-0.046875-0.42188-0.14062-0.54688-0.085938-0.125-0.21484-0.1875-0.39062-0.1875-0.17969 0-0.3125 0.0625-0.40625 0.1875-0.085937 0.125-0.125 0.30859-0.125 0.54688 0 0.24219 0.039063 0.42969 0.125 0.5625 0.09375 0.125 0.22656 0.1875 0.40625 0.1875z"/>
  </symbol>
  <symbol id="f" overflow="visible">
   <path d="m1.7344-0.51562c0.17578 0 0.30469-0.0625 0.39062-0.1875 0.09375-0.13281 0.14062-0.32031 0.14062-0.5625 0-0.23828-0.046875-0.42188-0.14062-0.54688-0.085938-0.125-0.21484-0.1875-0.39062-0.1875-0.17969 0-0.3125 0.0625-0.40625 0.1875-0.085937 0.125-0.125 0.30859-0.125 0.54688 0 0.24219 0.039063 0.42969 0.125 0.5625 0.09375 0.125 0.22656 0.1875 0.40625 0.1875zm-0.53125-1.6406c0.10156-0.14453 0.22266-0.25391 0.35938-0.32812 0.13281-0.070313 0.28906-0.10938 0.46875-0.10938 0.3125 0 0.56641 0.125 0.76562 0.375 0.20703 0.25 0.3125 0.57031 0.3125 0.95312 0 0.39844-0.10547 0.71875-0.3125 0.96875-0.19922 0.24219-0.45312 0.35938-0.76562 0.35938-0.17969 0-0.33594-0.03125-0.46875-0.09375-0.13672-0.070312-0.25781-0.17969-0.35938-0.32812v0.35938h-0.8125v-3.5156h0.8125z"/>
  </symbol>
  <symbol id="k" overflow="visible">
   <path d="m0.0625-2.5312h0.79688l0.6875 1.7188 0.57812-1.7188h0.8125l-1.0625 2.7656c-0.11719 0.28125-0.24609 0.47656-0.39062 0.59375-0.13672 0.11328-0.32031 0.17188-0.54688 0.17188h-0.46875v-0.53125h0.25c0.13281 0 0.23438-0.023438 0.29688-0.0625 0.0625-0.042969 0.10938-0.12109 0.14062-0.23438l0.03125-0.078125z"/>
  </symbol>
  <symbol id="j" overflow="visible">
   <path d="m0.42188-3.375h2.3438v0.65625h-1.4688v0.625h1.3906v0.67188h-1.3906v1.4219h-0.875z"/>
  </symbol>
  <symbol id="v" overflow="visible">
   <path d="m2.3594-2.4531v0.60938c-0.16797-0.0625-0.33594-0.10938-0.5-0.14062-0.15625-0.039063-0.30859-0.0625-0.45312-0.0625-0.15625 0-0.27344 0.023437-0.34375 0.0625-0.074219 0.03125-0.10938 0.089844-0.10938 0.17188 0 0.0625 0.023437 0.11719 0.078125 0.15625 0.0625 0.03125 0.16406 0.054688 0.3125 0.0625l0.14062 0.015625c0.41406 0.054687 0.69141 0.14062 0.82812 0.26562 0.14453 0.125 0.21875 0.3125 0.21875 0.5625 0 0.27344-0.10156 0.47656-0.29688 0.60938-0.19922 0.13672-0.49609 0.20312-0.89062 0.20312-0.16797 0-0.33984-0.015625-0.51562-0.046875-0.17969-0.019531-0.35938-0.054688-0.54688-0.10938v-0.60938c0.15625 0.074219 0.31641 0.13281 0.48438 0.17188 0.17578 0.042969 0.35156 0.0625 0.53125 0.0625 0.15625 0 0.26953-0.019531 0.34375-0.0625 0.082031-0.050781 0.125-0.11719 0.125-0.20312 0-0.070313-0.03125-0.125-0.09375-0.15625-0.054687-0.039063-0.15625-0.066406-0.3125-0.078125l-0.14062-0.03125c-0.36719-0.039062-0.62109-0.11719-0.76562-0.23438-0.14844-0.125-0.21875-0.3125-0.21875-0.5625 0-0.26953 0.09375-0.46875 0.28125-0.59375 0.1875-0.13281 0.46875-0.20312 0.84375-0.20312 0.14453 0 0.30078 0.015625 0.46875 0.046875 0.16406 0.023437 0.34375 0.054687 0.53125 0.09375z"/>
  </symbol>
  <symbol id="c" overflow="visible">
   <path d="m1.5938-2.0156c-0.17969 0-0.3125 0.070313-0.40625 0.20312-0.09375 0.125-0.14062 0.30859-0.14062 0.54688 0 0.24219 0.046875 0.42969 0.14062 0.5625 0.09375 0.125 0.22656 0.1875 0.40625 0.1875 0.17578 0 0.3125-0.0625 0.40625-0.1875 0.09375-0.13281 0.14062-0.32031 0.14062-0.5625 0-0.23828-0.046875-0.42188-0.14062-0.54688-0.09375-0.13281-0.23047-0.20312-0.40625-0.20312zm0-0.57812c0.4375 0 0.77344 0.12109 1.0156 0.35938 0.25 0.23047 0.375 0.55469 0.375 0.96875 0 0.41797-0.125 0.74609-0.375 0.98438-0.24219 0.23047-0.57812 0.34375-1.0156 0.34375s-0.78125-0.11328-1.0312-0.34375c-0.24219-0.23828-0.35938-0.56641-0.35938-0.98438 0-0.41406 0.11719-0.73828 0.35938-0.96875 0.25-0.23828 0.59375-0.35938 1.0312-0.35938z"/>
  </symbol>
  <symbol id="i" overflow="visible">
   <path d="m0.35938-0.98438v-1.5469h0.8125v0.25 0.51562 0.42188c0 0.19922 0.003906 0.34375 0.015625 0.4375 0.007812 0.09375 0.023438 0.15625 0.046875 0.1875 0.039063 0.0625 0.085937 0.10938 0.14062 0.14062 0.050781 0.023437 0.10938 0.03125 0.17188 0.03125 0.17578 0 0.3125-0.0625 0.40625-0.1875 0.09375-0.13281 0.14062-0.31641 0.14062-0.54688v-1.25h0.8125v2.5312h-0.8125v-0.35938c-0.125 0.14844-0.25781 0.25781-0.39062 0.32812-0.13672 0.0625-0.28125 0.09375-0.4375 0.09375-0.30469 0-0.53125-0.085938-0.6875-0.26562-0.14844-0.17578-0.21875-0.4375-0.21875-0.78125z"/>
  </symbol>
  <symbol id="h" overflow="visible">
   <path d="m2.9375-1.5469v1.5469h-0.8125v-1.1719c0-0.21875-0.007812-0.36719-0.015625-0.45312-0.011719-0.082031-0.03125-0.14453-0.0625-0.1875-0.03125-0.050781-0.074219-0.09375-0.125-0.125-0.054687-0.03125-0.11719-0.046875-0.1875-0.046875-0.16797 0-0.29688 0.070313-0.39062 0.20312-0.09375 0.125-0.14062 0.30469-0.14062 0.53125v1.25h-0.8125v-2.5312h0.8125v0.375c0.11328-0.14453 0.23828-0.25391 0.375-0.32812 0.14453-0.070313 0.30078-0.10938 0.46875-0.10938 0.28906 0 0.50781 0.09375 0.65625 0.28125 0.15625 0.17969 0.23438 0.43359 0.23438 0.76562z"/>
  </symbol>
  <symbol id="u" overflow="visible">
   <path d="m0.42188-3.375h0.875v3.0469c0 0.41406-0.11719 0.72656-0.34375 0.9375-0.23047 0.20703-0.57422 0.3125-1.0312 0.3125h-0.1875v-0.65625h0.14062c0.17578 0 0.3125-0.054687 0.40625-0.15625 0.09375-0.09375 0.14062-0.23828 0.14062-0.4375z"/>
  </symbol>
  <symbol id="g" overflow="visible">
   <path d="m2.7344-2.1094c0.10156-0.15625 0.22266-0.27344 0.35938-0.35938 0.14453-0.082031 0.30078-0.125 0.46875-0.125 0.28906 0 0.50781 0.09375 0.65625 0.28125 0.15625 0.17969 0.23438 0.43359 0.23438 0.76562v1.5469h-0.8125v-1.3125-0.0625-0.09375c0-0.17578-0.027344-0.30469-0.078125-0.39062-0.054688-0.082031-0.13672-0.125-0.25-0.125-0.15625 0-0.27734 0.070313-0.35938 0.20312-0.085937 0.125-0.125 0.30859-0.125 0.54688v1.2344h-0.8125v-1.3125c0-0.28125-0.027344-0.46094-0.078125-0.54688-0.042969-0.082031-0.125-0.125-0.25-0.125-0.15625 0-0.27734 0.070313-0.35938 0.20312-0.085937 0.125-0.125 0.30469-0.125 0.53125v1.25h-0.8125v-2.5312h0.8125v0.375c0.09375-0.14453 0.20312-0.25391 0.32812-0.32812 0.13281-0.070313 0.28125-0.10938 0.4375-0.10938 0.17578 0 0.32812 0.042969 0.45312 0.125 0.13281 0.085938 0.23828 0.20312 0.3125 0.35938z"/>
  </symbol>
  <symbol id="t" overflow="visible">
   <path d="m0.39062-2.5312h0.8125v2.5312h-0.8125zm0-0.98438h0.8125v0.65625h-0.8125z"/>
  </symbol>
  <symbol id="s" overflow="visible">
   <path d="m0.39062-3.5156h0.8125v3.5156h-0.8125z"/>
  </symbol>
  <symbol id="r" overflow="visible">
   <path d="m2.0469-3.5156v0.53125h-0.4375c-0.11719 0-0.19922 0.023437-0.25 0.0625-0.042969 0.042969-0.0625 0.11719-0.0625 0.21875v0.17188h0.6875v0.57812h-0.6875v1.9531h-0.8125v-1.9531h-0.39062v-0.57812h0.39062v-0.17188c0-0.28125 0.078125-0.48438 0.23438-0.60938 0.15625-0.13281 0.39453-0.20312 0.71875-0.20312z"/>
  </symbol>
  <symbol id="q" overflow="visible">
   <path d="m2.9375-1.5469v1.5469h-0.8125v-1.1719c0-0.21875-0.007812-0.36719-0.015625-0.45312-0.011719-0.082031-0.03125-0.14453-0.0625-0.1875-0.03125-0.050781-0.074219-0.09375-0.125-0.125-0.054687-0.03125-0.11719-0.046875-0.1875-0.046875-0.16797 0-0.29688 0.070313-0.39062 0.20312-0.09375 0.125-0.14062 0.30469-0.14062 0.53125v1.25h-0.8125v-3.5156h0.8125v1.3594c0.11328-0.14453 0.23828-0.25391 0.375-0.32812 0.14453-0.070313 0.30078-0.10938 0.46875-0.10938 0.28906 0 0.50781 0.09375 0.65625 0.28125 0.15625 0.17969 0.23438 0.43359 0.23438 0.76562z"/>
  </symbol>
  <symbol id="p" overflow="visible">
   <path d="m0.42188-3.375h0.96875l1.2344 2.3125v-2.3125h0.82812v3.375h-0.98438l-1.2188-2.3125v2.3125h-0.82812z"/>
  </symbol>
  <symbol id="o" overflow="visible">
   <path d="m0.42188-3.375h1.4531c0.42578 0 0.75391 0.10156 0.98438 0.29688 0.22656 0.1875 0.34375 0.46094 0.34375 0.8125 0 0.35547-0.11719 0.625-0.34375 0.8125-0.23047 0.1875-0.55859 0.28125-0.98438 0.28125h-0.57812v1.1719h-0.875zm0.875 0.64062v0.9375h0.48438c0.16406 0 0.28906-0.039063 0.375-0.125 0.09375-0.082031 0.14062-0.19531 0.14062-0.34375 0-0.15625-0.046875-0.26953-0.14062-0.34375-0.085938-0.082031-0.21094-0.125-0.375-0.125z"/>
  </symbol>
  <symbol id="n" overflow="visible">
   <path d="m0.39062-2.5312h0.8125v2.4844c0 0.34375-0.085937 0.60156-0.25 0.78125-0.16797 0.17578-0.40234 0.26562-0.70312 0.26562h-0.40625v-0.53125h0.14062c0.15625 0 0.25781-0.039062 0.3125-0.10938 0.0625-0.0625 0.09375-0.19922 0.09375-0.40625zm0-0.98438h0.8125v0.65625h-0.8125z"/>
  </symbol>
  <symbol id="m" overflow="visible">
   <path d="m2.4375-2.4531v0.65625c-0.11719-0.070313-0.23047-0.125-0.34375-0.15625-0.10547-0.039063-0.21875-0.0625-0.34375-0.0625-0.21875 0-0.39062 0.070313-0.51562 0.20312-0.125 0.13672-0.1875 0.32031-0.1875 0.54688 0 0.24219 0.0625 0.42969 0.1875 0.5625 0.125 0.125 0.29688 0.1875 0.51562 0.1875 0.13281 0 0.25391-0.015625 0.35938-0.046875 0.11328-0.039062 0.22266-0.097656 0.32812-0.17188v0.65625c-0.125 0.054688-0.25781 0.085938-0.39062 0.10938-0.125 0.019531-0.25781 0.03125-0.39062 0.03125-0.46094 0-0.82031-0.11328-1.0781-0.34375-0.25-0.23828-0.375-0.56641-0.375-0.98438 0-0.41406 0.125-0.73828 0.375-0.96875 0.25781-0.23828 0.61719-0.35938 1.0781-0.35938 0.13281 0 0.26562 0.015625 0.39062 0.046875 0.125 0.023437 0.25391 0.054687 0.39062 0.09375z"/>
  </symbol>
 </defs>
 <g>
  <path d="m15.742 352.43c2.7773-34.258 13.891-71.297 25.926-87.965 64.816-73.148 192.59-71.297 284.26-71.297 50 6.4805 101.85 31.48 155.55 73.148 61.109 14.816 122.22 30.555 183.33 45.371 16.668 19.445 28.703 41.668 25 70.371 14.816 12.965 13.891 25.926-1.8516 37.965h-76.852c5.5547-10.184 9.2578-21.297 9.2578-34.258 0-37.035-30.555-67.594-67.594-67.594-37.965 0-68.52 30.555-68.52 67.594 0 12.035 3.7031 24.074 9.2578 33.332l-256.48-0.92578c5.5547-9.2578 8.332-20.371 8.332-32.406 0-37.035-29.629-67.594-67.594-67.594-37.035 0-67.594 30.555-67.594 67.594 0 12.035 2.7773 23.148 8.332 32.406h-93.52c-21.297-29.629-38.891-50.926-9.2578-65.742zm327.78-70.371c-74.074 0-150-0.92578-223.15-0.92578 7.4062-70.371 150-72.223 199.07-68.52 35.184 3.7031 67.594 20.371 99.074 40.742-37.965 0-63.891 8.332-75 28.703z" fill-rule="evenodd"/>
  <path d="m177.78 327.43c32.406 0 58.332 25.926 58.332 58.332 0 31.48-25.926 58.332-58.332 58.332s-58.332-26.852-58.332-58.332c0-32.406 25.926-58.332 58.332-58.332zm0 21.297c20.371 0 37.035 16.668 37.035 37.035 0 20.371-16.668 36.109-37.035 36.109-20.371 0-37.035-15.742-37.035-36.109 0-20.371 16.668-37.035 37.035-37.035z" fill-rule="evenodd"/>
  <path d="m551.85 327.43c32.406 0 59.258 25.926 59.258 58.332 0 31.48-26.852 58.332-59.258 58.332-31.48 0-58.332-26.852-58.332-58.332 0-32.406 26.852-58.332 58.332-58.332zm0 21.297c20.371 0 37.035 16.668 37.035 37.035 0 20.371-16.668 36.109-37.035 36.109-19.445 0-36.109-15.742-36.109-36.109 0-20.371 16.668-37.035 36.109-37.035z" fill-rule="evenodd"/>
  <use y="457.984375" xlink:href="#w"/>
  <use x="3.398438" y="457.984375" xlink:href="#b"/>
  <use x="5.679688" y="457.984375" xlink:href="#a"/>
  <use x="8.820313" y="457.984375" xlink:href="#e"/>
  <use x="11.945313" y="457.984375" xlink:href="#d"/>
  <use x="14.15625" y="457.984375" xlink:href="#a"/>
  <use x="17.296875" y="457.984375" xlink:href="#l"/>
  <use x="22.222656" y="457.984375" xlink:href="#f"/>
  <use x="25.539063" y="457.984375" xlink:href="#k"/>
  <use x="30.167969" y="457.984375" xlink:href="#j"/>
  <use x="33.328125" y="457.984375" xlink:href="#e"/>
  <use x="36.453125" y="457.984375" xlink:href="#v"/>
  <use x="39.210938" y="457.984375" xlink:href="#c"/>
  <use x="42.390625" y="457.984375" xlink:href="#f"/>
  <use x="45.703125" y="457.984375" xlink:href="#b"/>
  <use x="47.988281" y="457.984375" xlink:href="#i"/>
  <use x="51.28125" y="457.984375" xlink:href="#h"/>
  <use x="56.191406" y="457.984375" xlink:href="#u"/>
  <use x="57.914063" y="457.984375" xlink:href="#e"/>
  <use x="61.039063" y="457.984375" xlink:href="#g"/>
  <use x="65.863281" y="457.984375" xlink:href="#t"/>
  <use x="67.449219" y="457.984375" xlink:href="#s"/>
  <use y="462.617188" xlink:href="#r"/>
  <use x="2.015625" y="462.617188" xlink:href="#b"/>
  <use x="4.296875" y="462.617188" xlink:href="#c"/>
  <use x="7.476563" y="462.617188" xlink:href="#g"/>
  <use x="13.914062" y="462.617188" xlink:href="#d"/>
  <use x="16.125" y="462.617188" xlink:href="#q"/>
  <use x="19.421875" y="462.617188" xlink:href="#a"/>
  <use x="24.175781" y="462.617188" xlink:href="#p"/>
  <use x="28.050781" y="462.617188" xlink:href="#c"/>
  <use x="31.230469" y="462.617188" xlink:href="#i"/>
  <use x="34.527344" y="462.617188" xlink:href="#h"/>
  <use x="39.433594" y="462.617188" xlink:href="#o"/>
  <use x="42.828125" y="462.617188" xlink:href="#b"/>
  <use x="45.109375" y="462.617188" xlink:href="#c"/>
  <use x="48.289063" y="462.617188" xlink:href="#n"/>
  <use x="49.878906" y="462.617188" xlink:href="#a"/>
  <use x="53.015625" y="462.617188" xlink:href="#m"/>
  <use x="55.761719" y="462.617188" xlink:href="#d"/>
 </g>
</svg>
