<svg width="55" height="75" viewBox="0 0 55 75" fill="none" xmlns="http://www.w3.org/2000/svg">
<path fill-rule="evenodd" clip-rule="evenodd" d="M37.84 2.53506e-08H50.94C51.9801 0.0154884 52.9733 0.435567 53.7089 1.17113C54.4444 1.90669 54.8645 2.89987 54.88 3.94V70.88C54.8645 71.9201 54.4444 72.9133 53.7089 73.6489C52.9733 74.3844 51.9801 74.8045 50.94 74.82H37.84C36.7999 74.8045 35.8067 74.3844 35.0711 73.6489C34.3356 72.9133 33.9155 71.9201 33.9 70.88V3.94C33.9155 2.89987 34.3356 1.90669 35.0711 1.17113C35.8067 0.435567 36.7999 0.0154884 37.84 2.53506e-08ZM3.94 2.53506e-08H17C18.0506 -0.000118168 19.059 0.413063 19.8074 1.15028C20.5559 1.8875 20.9842 2.88957 21 3.94V70.88C20.9842 71.9304 20.5559 72.9325 19.8074 73.6697C19.059 74.4069 18.0506 74.8201 17 74.82H3.94C2.89988 74.8045 1.90669 74.3844 1.17113 73.6489C0.435565 72.9133 0.0154883 71.9201 0 70.88V3.94C0.0154883 2.89987 0.435565 1.90669 1.17113 1.17113C1.90669 0.435567 2.89988 0.0154884 3.94 2.53506e-08Z" fill="black"/>
</svg>
